# xmcd
#
# Track frame offsets: 
#        150
#        14467
#        34305
#        49045
#        65745
#        86955
#        104020
#        119412
#        141982
#        158092
#        174895
#        196337
#        217507
#        238762
#        267725
#        280587
#
# Disc length: 3914 seconds
#
# Revision: 3
# Processed by: cddbd v1.5.2PL0 Copyright (c) Steve Scherf et al.
# Submitted via: ExactAudioCopy v0.95b4
#
DISCID=ec0f4810
DTITLE=???? - anthology ????best
DYEAR=2002
DGENRE=New Age
TTITLE0=???
TTITLE1=?????
TTITLE2=?????
TTITLE3=???
TTITLE4=?
TTITLE5=??????
TTITLE6=??
TTITLE7=?
TTITLE8=???
TTITLE9=??
TTITLE10=?????
TTITLE11=???
TTITLE12=???
TTITLE13=??????
TTITLE14=?????????
TTITLE15=???????????????????
EXTD=YEAR: 2002
EXTT0=
EXTT1=
EXTT2=
EXTT3=
EXTT4=
EXTT5=
EXTT6=
EXTT7=
EXTT8=
EXTT9=
EXTT10=
EXTT11=
EXTT12=
EXTT13=
EXTT14=
EXTT15=
PLAYORDER=
